<svg width="70" height="16" viewBox="0 0 70 16" fill="black" xmlns="http://www.w3.org/2000/svg">
<path d="M69.9993 2.33335C69.9993 3.25383 69.2532 4.00002 68.3327 4.00002C67.4122 4.00002 66.666 3.25383 66.666 2.33335C66.666 1.41288 67.4122 0.666687 68.3327 0.666687C69.2532 0.666687 69.9993 1.41288 69.9993 2.33335Z" fill="#F86F2D"/>
<path d="M3.19761 15.7288V10.013C3.19761 8.71969 4.0074 7.88527 5.27399 7.88527C6.37446 7.88527 7.10119 8.74055 7.10119 10.0548V15.7288H10.2988V9.28292C10.2988 6.5502 8.86611 4.9648 6.39523 4.9648C5.04558 4.9648 3.86205 5.48631 3.21838 6.38331L3.01074 5.29857H0V15.7288H3.19761Z"/>
<path d="M19.4856 5.29857V10.7223C19.4856 12.4329 18.925 13.1421 17.5546 13.1421C16.2465 13.1421 15.6651 12.3911 15.6651 10.6806V5.29857H12.4675V11.8488C12.4675 14.4146 13.9209 16 16.288 16C17.5338 16 18.8212 15.4159 19.4649 14.5606L19.6725 15.7288H22.6832V5.29857H19.4856Z"/>
<path d="M28.0935 15.7288L28.2596 14.3937C28.8202 15.3533 30.066 16 31.5195 16C34.4679 16 36.5235 13.8514 36.5235 10.618C36.5235 7.21773 34.6756 4.94394 31.7687 4.94394C30.2737 4.94394 28.9033 5.56975 28.2803 6.50847V0H25.0827V15.7288H28.0935ZM28.3011 10.4511C28.3011 8.88657 29.3393 7.84355 30.8343 7.84355C32.35 7.84355 33.3052 8.90743 33.3052 10.4511C33.3052 11.9948 32.35 13.0587 30.8343 13.0587C29.3393 13.0587 28.3011 12.0156 28.3011 10.4511Z"/>
<path d="M41.375 15.7288L41.5411 14.3937C42.1017 15.3533 43.3475 16 44.801 16C47.7494 16 49.805 13.8514 49.805 10.618C49.805 7.21773 47.9571 4.94394 45.0501 4.94394C43.5551 4.94394 42.1847 5.56975 41.5618 6.50847V0H38.3642V15.7288H41.375ZM41.5826 10.4511C41.5826 8.88657 42.6208 7.84355 44.1158 7.84355C45.6315 7.84355 46.5867 8.90743 46.5867 10.4511C46.5867 11.9948 45.6315 13.0587 44.1158 13.0587C42.6208 13.0587 41.5826 12.0156 41.5826 10.4511Z"/>
<path d="M54.8433 15.7288V0H51.6457V15.7288H54.8433Z"/>
<path d="M62.0593 16C64.904 16 66.9596 14.5189 67.3333 12.2034H64.4057C64.1773 12.9544 63.3259 13.3924 62.1216 13.3924C60.7097 13.3924 59.9415 12.7458 59.7546 11.369L67.2918 11.3273V10.5137C67.2918 7.11343 65.257 4.9648 61.9971 4.9648C58.8617 4.9648 56.6815 7.23859 56.6815 10.4928C56.6815 13.7053 58.924 16 62.0593 16ZM62.0178 7.57236C63.3052 7.57236 64.115 8.28162 64.115 9.38722H59.7961C60.0453 8.13559 60.7512 7.57236 62.0178 7.57236Z"/>
</svg>
